<svg version="1.1" id="Layer_1" xmlns="http://www.w3.org/2000/svg" xmlns:xlink="http://www.w3.org/1999/xlink" x="0px" y="0px"
	 width="100%" viewBox="0 0 750 750" enable-background="new 0 0 750 750" xml:space="preserve">
<path fill="#000000" opacity="1.000000" stroke="none" 
	d="
M751.000000,283.000000 
	C751.000000,439.333344 751.000000,595.166687 751.000000,751.000000 
	C501.000000,751.000000 251.000000,751.000000 1.000000,751.000000 
	C1.000000,501.000000 1.000000,251.000000 1.000000,1.000000 
	C251.000000,1.000000 501.000000,1.000000 751.000000,1.000000 
	C751.000000,94.833336 751.000000,188.666672 751.000000,283.000000 
M76.034721,238.732880 
	C76.076454,239.484619 76.118187,240.236359 76.029915,241.763611 
	C76.410561,243.501999 76.791206,245.240372 77.263123,247.648712 
	C78.493050,249.464752 79.722984,251.280792 81.222733,253.667145 
	C82.173080,254.784088 83.123436,255.901047 83.971489,257.810394 
	C79.733223,275.621765 76.809090,293.598053 76.972443,312.820068 
	C76.644623,314.236694 76.032570,315.653229 76.032089,317.069946 
	C76.026039,335.041046 76.107925,353.012115 76.036285,371.821747 
	C77.356537,380.891937 78.323868,390.031586 80.090958,399.013885 
	C82.070976,409.078430 84.774872,419.000610 87.071899,429.745483 
	C92.640335,447.432831 99.503685,464.532806 110.193825,480.664124 
	C117.237755,490.378143 123.953636,500.354065 131.432159,509.721100 
	C137.145615,516.877380 143.824417,523.262878 150.068741,530.738464 
	C149.768661,532.150818 149.468582,533.563232 149.024124,535.822815 
	C149.316956,538.231995 149.609802,540.641113 149.974869,543.773499 
	C150.704697,545.505005 151.434525,547.236450 152.267853,549.629761 
	C154.137558,551.437744 156.007248,553.245728 158.235214,555.672913 
	C163.541183,560.187866 169.772522,559.507324 176.017487,558.901917 
	C177.193161,558.787964 178.636780,558.672852 179.567993,559.219971 
	C192.071762,566.566711 204.171326,574.691772 217.075241,581.235413 
	C225.791046,585.655273 235.616135,587.887634 245.446716,591.658447 
	C262.520508,596.195862 279.700531,599.854797 297.414276,601.247253 
	C312.845062,602.460266 328.216736,604.714050 343.529053,607.064697 
	C359.323639,609.489380 375.153229,611.985291 390.711975,615.561707 
	C405.632812,618.991577 420.225830,623.847473 435.450684,628.613098 
	C448.987457,633.927856 462.738464,638.763123 476.002136,644.689148 
	C489.883606,650.891296 503.364868,658.009399 516.892029,664.977722 
	C526.756531,670.059204 536.235962,675.984863 548.058594,674.992859 
	C559.912415,673.998108 570.188538,669.904236 574.252747,657.943542 
	C577.182434,649.321838 578.047546,639.998535 579.954895,630.183594 
	C581.914307,622.786621 583.873718,615.389709 586.172729,607.371216 
	C589.352356,600.682373 593.504517,594.822205 600.679199,590.724548 
	C609.281189,583.016418 609.828125,579.459900 602.951843,570.159790 
	C600.701843,563.092957 601.771851,560.849121 608.949585,559.208496 
	C612.763428,558.336731 615.864014,557.056152 617.707397,552.560425 
	C621.554993,544.602844 616.904907,539.219421 611.951172,533.152954 
	C609.682251,527.971802 607.782166,522.742249 609.991760,516.304871 
	C612.453552,512.424988 615.507141,509.837219 620.330811,508.649597 
	C626.406433,507.153687 632.158325,504.343384 638.756531,501.978912 
	C648.365051,497.372528 651.723999,491.205017 649.018433,482.213806 
	C645.750366,473.337708 638.846130,467.060516 632.981079,459.250519 
	C627.357178,450.151337 621.733215,441.052124 615.980896,431.214203 
	C613.025879,423.796234 610.070801,416.378265 607.015198,408.162689 
	C605.362549,401.408997 603.709900,394.655334 602.009644,387.039642 
	C601.671509,383.953949 601.383118,380.861847 600.983643,377.784088 
	C600.382263,373.151367 599.703247,368.528748 599.006653,362.978088 
	C598.949402,354.983582 598.892151,346.989044 598.961182,338.151581 
	C598.653137,335.279114 598.077332,332.404663 598.098694,329.534637 
	C598.132324,325.020660 598.567993,320.509674 598.960938,315.078064 
	C598.584778,309.716949 598.208679,304.355865 597.960327,298.134857 
	C597.012085,291.409698 596.063904,284.684570 595.019104,277.096710 
	C593.697388,270.696747 592.375732,264.296814 591.007751,257.096649 
	C588.712952,250.719025 586.418213,244.341415 583.996277,237.249756 
	C576.701477,225.818314 569.406677,214.386887 561.807861,202.324188 
	C559.075378,198.279709 556.607727,194.022079 553.558289,190.232635 
	C545.882690,180.694244 537.944641,171.367111 529.822937,161.346176 
	C518.010132,151.192505 506.552856,140.580444 494.260162,131.045486 
	C485.990265,124.630844 476.539032,119.739197 467.135925,113.703407 
	C466.518890,113.168236 465.982178,112.468620 465.272949,112.122162 
	C450.653412,104.980675 436.307129,97.175682 421.310638,90.934311 
	C398.554718,81.463516 374.486664,76.650787 349.894104,76.188377 
	C328.241150,75.781242 306.459991,74.415016 284.910248,78.051552 
	C275.207245,79.688950 265.604889,81.922783 255.288513,83.698753 
	C247.063461,73.273727 230.154205,73.008781 221.247543,85.294640 
	C220.459000,87.519249 219.670471,89.743858 218.254593,92.388466 
	C218.161423,93.894737 218.068268,95.401001 217.238174,96.990547 
	C202.749817,103.482574 189.538528,112.043945 177.383713,122.180260 
	C167.719925,130.239227 158.374847,138.680374 148.278625,147.213928 
	C143.785324,152.037216 139.165695,156.749756 134.821930,161.704163 
	C120.674759,177.840118 109.049942,195.688553 99.014580,214.626724 
	C98.218796,216.128479 96.275299,217.471161 94.592155,217.974121 
	C88.083603,219.919052 81.927299,222.162125 78.265656,229.317917 
	C77.803932,230.868011 77.342209,232.418091 76.263992,234.364471 
	C76.231071,235.572662 76.198151,236.780869 76.034721,238.732880 
z"/>
<path fill="#008428" opacity="1.000000" stroke="none" 
	d="
M585.833191,607.992737 
	C583.873718,615.389709 581.914307,622.786621 579.489502,630.632446 
	C575.560974,631.361877 572.085571,631.985779 568.636780,631.863037 
	C554.717041,631.367188 540.811340,630.441040 526.889832,630.041931 
	C498.514404,629.228577 470.132294,628.647522 441.752472,627.991211 
	C439.491150,627.938904 437.226196,628.044556 434.962921,628.076721 
	C420.225830,623.847473 405.632812,618.991577 390.711975,615.561707 
	C375.153229,611.985291 359.323639,609.489380 343.529053,607.064697 
	C328.216736,604.714050 312.845062,602.460266 297.414276,601.247253 
	C279.700531,599.854797 262.520508,596.195862 245.534698,591.168823 
	C247.069473,590.496216 248.521530,590.122131 249.962158,590.161987 
	C258.004608,590.384216 266.044556,590.870361 274.084778,590.858948 
	C275.720184,590.856628 277.353149,589.109924 279.417603,588.108887 
	C333.448853,593.437683 386.953522,599.364685 439.099396,617.560608 
	C437.418671,611.854553 436.123993,607.459290 435.250366,603.136047 
	C437.475342,603.467529 439.272308,603.878479 441.084381,603.962402 
	C456.318359,604.667969 471.549194,605.546936 486.792145,605.929077 
	C519.802368,606.756775 552.819092,607.320862 585.833191,607.992737 
z"/>
<path fill="#00AB3C" opacity="1.000000" stroke="none" 
	d="
M616.109314,431.952942 
	C621.733215,441.052124 627.357178,450.151337 632.774658,459.838074 
	C630.152344,461.068054 627.733765,462.247284 625.321167,462.235168 
	C621.021118,462.213562 616.732666,461.200409 612.425598,461.075623 
	C585.993652,460.309937 559.560059,459.563507 533.122437,459.046906 
	C519.468628,458.780090 505.792816,459.352997 492.150940,458.869568 
	C483.769714,458.572540 475.433807,456.995972 467.123230,455.640289 
	C471.074127,446.178040 474.979279,437.069458 479.197449,428.158447 
	C481.597290,429.230652 483.660706,430.802246 485.774689,430.873535 
	C510.648499,431.712494 535.526978,432.483398 560.410339,432.943756 
	C576.527466,433.241943 592.654724,433.043396 608.776855,432.952759 
	C611.222839,432.939026 613.665222,432.301819 616.109314,431.952942 
z"/>
<path fill="#00A137" opacity="1.000000" stroke="none" 
	d="
M649.114990,482.959320 
	C651.723999,491.205017 648.365051,497.372528 638.044800,501.824402 
	C636.201233,501.451050 635.073853,501.068817 633.936768,501.037354 
	C608.544617,500.334930 583.152954,499.606537 557.757690,499.033844 
	C548.446716,498.823853 539.126831,499.029694 529.811279,498.990814 
	C521.996399,498.958191 514.176208,499.007263 506.368103,498.737946 
	C483.231323,497.939880 460.099335,497.002350 436.668793,495.959351 
	C429.229065,488.567200 422.086029,481.335022 415.234253,473.917084 
	C417.093842,473.975311 418.685516,474.520660 420.225494,474.400879 
	C423.483978,474.147430 426.715485,473.546692 430.243958,473.268677 
	C437.063599,480.024689 443.597260,486.600464 450.530731,493.578552 
	C453.900208,486.285461 456.699768,480.225891 459.653137,474.561584 
	C462.478149,476.283752 465.065948,478.514679 467.835968,478.770172 
	C476.591309,479.577728 485.412750,479.710938 494.212341,479.987244 
	C516.300842,480.680786 538.390137,481.353546 560.481323,481.953094 
	C587.230408,482.679047 613.980957,483.357849 640.733337,483.944550 
	C643.518677,484.005676 646.320679,483.306000 649.114990,482.959320 
z"/>
<path fill="#00A539" opacity="1.000000" stroke="none" 
	d="
M649.066711,482.586548 
	C646.320679,483.306000 643.518677,484.005676 640.733337,483.944550 
	C613.980957,483.357849 587.230408,482.679047 560.481323,481.953094 
	C538.390137,481.353546 516.300842,480.680786 494.212341,479.987244 
	C485.412750,479.710938 476.591309,479.577728 467.835968,478.770172 
	C465.065948,478.514679 462.478149,476.283752 459.828674,474.271729 
	C462.259460,467.722382 464.668518,461.858185 467.077576,455.993958 
	C475.433807,456.995972 483.769714,458.572540 492.150940,458.869568 
	C505.792816,459.352997 519.468628,458.780090 533.122437,459.046906 
	C559.560059,459.563507 585.993652,460.309937 612.425598,461.075623 
	C616.732666,461.200409 621.021118,462.213562 625.321167,462.235168 
	C627.733765,462.247284 630.152344,461.068054 632.837280,460.188354 
	C638.846130,467.060516 645.750366,473.337708 649.066711,482.586548 
z"/>
<path fill="#007D25" opacity="1.000000" stroke="none" 
	d="
M435.206787,628.344910 
	C437.226196,628.044556 439.491150,627.938904 441.752472,627.991211 
	C470.132294,628.647522 498.514404,629.228577 526.889832,630.041931 
	C540.811340,630.441040 554.717041,631.367188 568.636780,631.863037 
	C572.085571,631.985779 575.560974,631.361877 579.428833,631.034668 
	C578.047546,639.998535 577.182434,649.321838 574.252747,657.943542 
	C570.188538,669.904236 559.912415,673.998108 548.058594,674.992859 
	C536.235962,675.984863 526.756531,670.059204 516.892029,664.977722 
	C503.364868,658.009399 489.883606,650.891296 476.002136,644.689148 
	C462.738464,638.763123 448.987457,633.927856 435.206787,628.344910 
z"/>
<path fill="#009431" opacity="1.000000" stroke="none" 
	d="
M612.053772,533.896851 
	C616.904907,539.219421 621.554993,544.602844 617.020874,552.873901 
	C611.923157,553.791626 607.496399,555.000488 603.103638,554.887573 
	C589.515076,554.538269 575.945496,553.490784 562.357483,553.069519 
	C535.980896,552.251831 509.598969,551.566833 483.214905,551.045837 
	C469.921173,550.783386 456.615173,551.153015 443.320740,550.908081 
	C439.258942,550.833313 435.217224,549.665039 431.113556,548.584595 
	C432.665192,542.103882 434.269623,536.036072 436.228882,530.134888 
	C438.647980,530.861328 440.699005,531.851196 442.778595,531.915344 
	C467.856812,532.689575 492.938141,533.373169 518.021240,533.973022 
	C526.005676,534.163940 534.001831,533.878296 541.985474,534.087280 
	C563.241516,534.643677 584.492188,535.414124 605.749573,535.897522 
	C607.834717,535.944946 609.951599,534.597107 612.053772,533.896851 
z"/>
<path fill="#00902F" opacity="1.000000" stroke="none" 
	d="
M431.166321,548.997498 
	C435.217224,549.665039 439.258942,550.833313 443.320740,550.908081 
	C456.615173,551.153015 469.921173,550.783386 483.214905,551.045837 
	C509.598969,551.566833 535.980896,552.251831 562.357483,553.069519 
	C575.945496,553.490784 589.515076,554.538269 603.103638,554.887573 
	C607.496399,555.000488 611.923157,553.791626 616.724731,553.114746 
	C615.864014,557.056152 612.763428,558.336731 608.949585,559.208496 
	C601.771851,560.849121 600.701843,563.092957 602.761475,570.816528 
	C600.515137,572.313232 598.426575,573.933777 596.409363,573.849365 
	C589.948792,573.579224 583.524109,572.230591 577.068665,572.093140 
	C538.483154,571.271667 499.893890,570.606873 461.303619,570.042664 
	C450.490234,569.884460 439.644135,570.511841 429.112915,566.544556 
	C429.761292,560.395874 430.463806,554.696655 431.166321,548.997498 
z"/>
<path fill="#009933" opacity="1.000000" stroke="none" 
	d="
M612.002441,533.524902 
	C609.951599,534.597107 607.834717,535.944946 605.749573,535.897522 
	C584.492188,535.414124 563.241516,534.643677 541.985474,534.087280 
	C534.001831,533.878296 526.005676,534.163940 518.021240,533.973022 
	C492.938141,533.373169 467.856812,532.689575 442.778595,531.915344 
	C440.699005,531.851196 438.647980,530.861328 436.281799,529.748047 
	C438.484772,522.519653 440.989594,515.844788 443.721466,509.531616 
	C447.835754,515.040222 453.850403,513.567505 458.753021,513.765137 
	C486.347046,514.877502 513.967773,515.328735 541.579590,515.998596 
	C555.385254,516.333496 569.190063,516.728149 582.997620,516.953918 
	C591.940735,517.100159 600.888000,516.990112 609.833435,516.994873 
	C607.782166,522.742249 609.682251,527.971802 612.002441,533.524902 
z"/>
<path fill="#008C2C" opacity="1.000000" stroke="none" 
	d="
M429.167053,566.994080 
	C439.644135,570.511841 450.490234,569.884460 461.303619,570.042664 
	C499.893890,570.606873 538.483154,571.271667 577.068665,572.093140 
	C583.524109,572.230591 589.948792,573.579224 596.409363,573.849365 
	C598.426575,573.933777 600.515137,572.313232 602.837769,571.211182 
	C609.828125,579.459900 609.281189,583.016418 599.909790,590.872314 
	C563.881531,590.346680 528.623230,589.633484 493.363159,589.025818 
	C483.539398,588.856506 473.690613,589.388977 463.888733,588.895874 
	C452.960144,588.346130 442.071899,586.994446 430.968018,585.629272 
	C430.235657,579.175903 429.701355,573.084961 429.167053,566.994080 
z"/>
<path fill="#00B13F" opacity="1.000000" stroke="none" 
	d="
M616.045105,431.583557 
	C613.665222,432.301819 611.222839,432.939026 608.776855,432.952759 
	C592.654724,433.043396 576.527466,433.241943 560.410339,432.943756 
	C535.526978,432.483398 510.648499,431.712494 485.774689,430.873535 
	C483.660706,430.802246 481.597290,429.230652 479.264771,427.784363 
	C481.734955,419.807556 484.450745,412.402435 487.523926,405.110901 
	C489.930511,405.812134 491.963440,406.843536 494.031311,406.919006 
	C515.426392,407.699799 536.823364,408.523224 558.227539,408.931702 
	C574.517822,409.242615 590.819275,408.972137 607.115723,408.960297 
	C610.070801,416.378265 613.025879,423.796234 616.045105,431.583557 
z"/>
<path fill="#009D35" opacity="1.000000" stroke="none" 
	d="
M609.912598,516.649902 
	C600.888000,516.990112 591.940735,517.100159 582.997620,516.953918 
	C569.190063,516.728149 555.385254,516.333496 541.579590,515.998596 
	C513.967773,515.328735 486.347046,514.877502 458.753021,513.765137 
	C453.850403,513.567505 447.835754,515.040222 443.886169,509.235809 
	C445.205353,505.488800 444.252502,503.184753 441.694275,501.105438 
	C439.931641,499.672699 438.529022,497.797028 436.965485,496.119324 
	C460.099335,497.002350 483.231323,497.939880 506.368103,498.737946 
	C514.176208,499.007263 521.996399,498.958191 529.811279,498.990814 
	C539.126831,499.029694 548.446716,498.823853 557.757690,499.033844 
	C583.152954,499.606537 608.544617,500.334930 633.936768,501.037354 
	C635.073853,501.068817 636.201233,501.451050 637.691528,501.885071 
	C632.158325,504.343384 626.406433,507.153687 620.330811,508.649597 
	C615.507141,509.837219 612.453552,512.424988 609.912598,516.649902 
z"/>
<path fill="#00C147" opacity="1.000000" stroke="none" 
	d="
M598.834839,338.994537 
	C598.892151,346.989044 598.949402,354.983582 598.672607,363.654205 
	C596.207886,364.553528 594.072266,365.009613 591.947205,364.964691 
	C562.553040,364.343445 533.159912,363.668762 503.768036,362.945679 
	C501.794189,362.897156 499.832489,362.355255 497.561829,361.827515 
	C493.561279,350.071594 489.864075,338.531036 486.560913,327.006714 
	C490.582520,327.523560 494.445953,329.182007 497.419067,325.160736 
	C499.576141,330.997955 501.424591,336.628845 503.474701,342.874084 
	C504.394043,339.087219 505.137054,336.026581 506.248383,333.051514 
	C509.403595,334.086365 512.163696,335.766785 514.981628,335.870056 
	C538.808533,336.743134 562.646851,337.297913 586.479309,338.029083 
	C590.603821,338.155609 594.716614,338.663025 598.834839,338.994537 
z"/>
<path fill="#00882A" opacity="1.000000" stroke="none" 
	d="
M431.166077,585.991821 
	C442.071899,586.994446 452.960144,588.346130 463.888733,588.895874 
	C473.690613,589.388977 483.539398,588.856506 493.363159,589.025818 
	C528.623230,589.633484 563.881531,590.346680 599.615479,591.027832 
	C593.504517,594.822205 589.352356,600.682373 586.002930,607.682007 
	C552.819092,607.320862 519.802368,606.756775 486.792145,605.929077 
	C471.549194,605.546936 456.318359,604.667969 441.084381,603.962402 
	C439.272308,603.878479 437.475342,603.467529 434.970917,602.878540 
	C433.235657,597.029846 432.200867,591.510864 431.166077,585.991821 
z"/>
<path fill="#00BB44" opacity="1.000000" stroke="none" 
	d="
M497.865143,362.042847 
	C499.832489,362.355255 501.794189,362.897156 503.768036,362.945679 
	C533.159912,363.668762 562.553040,364.343445 591.947205,364.964691 
	C594.072266,365.009613 596.207886,364.553528 598.697876,364.116089 
	C599.703247,368.528748 600.382263,373.151367 600.983643,377.784088 
	C601.383118,380.861847 601.671509,383.953949 601.674194,387.684967 
	C599.048035,388.553528 596.752502,389.011597 594.467468,388.964386 
	C564.818787,388.351410 535.170898,387.694702 505.524750,386.967712 
	C501.399963,386.866608 497.285858,386.330322 493.124390,385.613831 
	C494.990723,377.567230 499.336182,370.404907 497.865143,362.042847 
z"/>
<path fill="#00DE56" opacity="1.000000" stroke="none" 
	d="
M562.111877,202.955460 
	C569.406677,214.386887 576.701477,225.818314 583.583252,237.613770 
	C556.421509,238.268906 529.686340,238.290466 503.101379,233.588425 
	C502.829803,232.069092 502.718292,230.927002 502.401123,229.845184 
	C499.677338,220.554352 496.916382,211.274414 494.562286,202.089691 
	C497.250977,202.458511 499.539032,202.907028 501.837616,202.970032 
	C515.903320,203.355637 529.970215,203.794205 544.039246,203.915344 
	C550.060303,203.967194 556.087463,203.297363 562.111877,202.955460 
z"/>
<path fill="#00E75A" opacity="1.000000" stroke="none" 
	d="
M561.959839,202.639832 
	C556.087463,203.297363 550.060303,203.967194 544.039246,203.915344 
	C529.970215,203.794205 515.903320,203.355637 501.837616,202.970032 
	C499.539032,202.907028 497.250977,202.458511 494.395447,201.755493 
	C493.215546,199.835114 492.631073,198.332779 491.975922,196.861938 
	C486.952576,185.584305 481.915436,174.312790 477.358551,163.031708 
	C493.255219,163.306213 508.675323,163.661560 524.097290,163.780899 
	C526.097290,163.796387 528.106689,162.593719 530.111755,161.955292 
	C537.944641,171.367111 545.882690,180.694244 553.558289,190.232635 
	C556.607727,194.022079 559.075378,198.279709 561.959839,202.639832 
z"/>
<path fill="#00FC64" opacity="1.000000" stroke="none" 
	d="
M255.956848,83.885986 
	C265.604889,81.922783 275.207245,79.688950 284.910248,78.051552 
	C306.459991,74.415016 328.241150,75.781242 349.894104,76.188377 
	C374.486664,76.650787 398.554718,81.463516 421.310638,90.934311 
	C436.307129,97.175682 450.653412,104.980675 465.272949,112.122162 
	C465.982178,112.468620 466.518890,113.168236 467.058044,114.242332 
	C464.014771,115.504501 461.046265,116.818024 458.084839,116.802208 
	C454.348053,116.782257 450.617035,115.677917 446.565399,114.892014 
	C432.869904,108.848618 419.869904,101.787804 406.033508,97.313339 
	C380.429565,89.033470 353.820068,86.313782 326.906158,87.007721 
	C315.483063,87.302238 303.991913,87.002914 292.659851,88.193413 
	C281.696442,89.345177 270.897705,92.064369 259.899780,93.880371 
	C259.573090,93.398903 259.351593,93.151535 259.088257,92.549469 
	C258.034485,89.799034 257.000916,87.422661 255.968109,84.756180 
	C255.964859,84.272713 255.960861,84.079353 255.956848,83.885986 
z"/>
<path fill="#00B642" opacity="1.000000" stroke="none" 
	d="
M493.166809,385.995483 
	C497.285858,386.330322 501.399963,386.866608 505.524750,386.967712 
	C535.170898,387.694702 564.818787,388.351410 594.467468,388.964386 
	C596.752502,389.011597 599.048035,388.553528 601.697998,388.115967 
	C603.709900,394.655334 605.362549,401.408997 607.065430,408.561493 
	C590.819275,408.972137 574.517822,409.242615 558.227539,408.931702 
	C536.823364,408.523224 515.426392,407.699799 494.031311,406.919006 
	C491.963440,406.843536 489.930511,405.812134 487.481323,404.856262 
	C487.109680,404.318268 487.138062,404.148529 487.315186,403.807373 
	C487.655334,403.400360 487.821320,403.147949 487.982422,402.491730 
	C489.724274,396.734955 491.445526,391.365234 493.166809,385.995483 
z"/>
<path fill="#00F15F" opacity="1.000000" stroke="none" 
	d="
M446.883545,115.041382 
	C450.617035,115.677917 454.348053,116.782257 458.084839,116.802208 
	C461.046265,116.818024 464.014771,115.504501 467.298218,114.473740 
	C476.539032,119.739197 485.990265,124.630844 494.260162,131.045486 
	C506.552856,140.580444 518.010132,151.192505 529.967346,161.650742 
	C528.106689,162.593719 526.097290,163.796387 524.097290,163.780899 
	C508.675323,163.661560 493.255219,163.306213 477.055908,162.859100 
	C474.225555,159.003540 472.332489,155.213486 470.093292,151.640381 
	C462.422241,139.399643 454.629730,127.235031 446.883545,115.041382 
z"/>
<path fill="#00C74A" opacity="1.000000" stroke="none" 
	d="
M598.898010,338.573059 
	C594.716614,338.663025 590.603821,338.155609 586.479309,338.029083 
	C562.646851,337.297913 538.808533,336.743134 514.981628,335.870056 
	C512.163696,335.766785 509.403595,334.086365 506.297791,332.611206 
	C506.708038,325.722351 507.437195,319.359314 508.520813,313.108826 
	C517.666931,314.480560 526.433777,316.561707 535.255432,316.828491 
	C553.814758,317.389771 572.403137,317.038361 590.979065,316.954742 
	C593.598511,316.942963 596.215393,316.331390 598.833435,315.997437 
	C598.567993,320.509674 598.132324,325.020660 598.098694,329.534637 
	C598.077332,332.404663 598.653137,335.279114 598.898010,338.573059 
z"/>
<path fill="#00CF4E" opacity="1.000000" stroke="none" 
	d="
M595.115662,277.959412 
	C596.063904,284.684570 597.012085,291.409698 597.482300,298.582397 
	C592.224548,299.233490 587.433105,299.745758 582.667847,299.565857 
	C576.060425,299.316406 569.481262,298.244446 562.874878,298.058197 
	C544.976624,297.553558 527.070374,297.330414 509.103210,296.531250 
	C509.081726,289.376465 509.124329,282.686127 509.574860,276.040955 
	C513.121094,276.390747 516.253174,276.845276 519.398682,276.974762 
	C535.509155,277.637787 551.618958,278.432190 567.737427,278.741943 
	C576.855103,278.917175 585.989075,278.248169 595.115662,277.959412 
z"/>
<path fill="#00D852" opacity="1.000000" stroke="none" 
	d="
M503.166168,233.993607 
	C529.686340,238.290466 556.421509,238.268906 583.646851,237.970795 
	C586.418213,244.341415 588.712952,250.719025 590.740479,257.756775 
	C587.933533,258.944366 585.380676,259.983551 582.856323,259.918427 
	C562.649536,259.396820 542.447083,258.696625 522.245911,257.977844 
	C517.451965,257.807281 512.667847,257.360199 507.549011,256.798615 
	C505.867889,249.035812 504.517029,241.514709 503.166168,233.993607 
z"/>
<path fill="#00CB4B" opacity="1.000000" stroke="none" 
	d="
M509.167297,296.995667 
	C527.070374,297.330414 544.976624,297.553558 562.874878,298.058197 
	C569.481262,298.244446 576.060425,299.316406 582.667847,299.565857 
	C587.433105,299.745758 592.224548,299.233490 597.418457,299.012329 
	C598.208679,304.355865 598.584778,309.716949 598.897217,315.537750 
	C596.215393,316.331390 593.598511,316.942963 590.979065,316.954742 
	C572.403137,317.038361 553.814758,317.389771 535.255432,316.828491 
	C526.433777,316.561707 517.666931,314.480560 508.457153,312.677795 
	C508.415131,307.088074 508.791229,302.041870 509.167297,296.995667 
z"/>
<path fill="#00D451" opacity="1.000000" stroke="none" 
	d="
M507.879242,257.040314 
	C512.667847,257.360199 517.451965,257.807281 522.245911,257.977844 
	C542.447083,258.696625 562.649536,259.396820 582.856323,259.918427 
	C585.380676,259.983551 587.933533,258.944366 590.763611,258.156860 
	C592.375732,264.296814 593.697388,270.696747 595.067383,277.528076 
	C585.989075,278.248169 576.855103,278.917175 567.737427,278.741943 
	C551.618958,278.432190 535.509155,277.637787 519.398682,276.974762 
	C516.253174,276.845276 513.121094,276.390747 509.510437,275.588165 
	C508.651794,269.073547 508.265503,263.056946 507.879242,257.040314 
z"/>
<path fill="#00E659" opacity="1.000000" stroke="none" 
	d="
M78.877228,228.969620 
	C81.927299,222.162125 88.083603,219.919052 94.592155,217.974121 
	C96.275299,217.471161 98.218796,216.128479 99.014580,214.626724 
	C109.049942,195.688553 120.674759,177.840118 134.821930,161.704163 
	C139.165695,156.749756 143.785324,152.037216 148.979462,147.240387 
	C154.421799,147.621368 159.163300,147.975891 163.742981,148.550812 
	C163.420624,148.684830 163.260101,148.598434 162.959671,148.762756 
	C162.556473,149.292175 162.293198,149.570908 161.719421,149.993286 
	C139.895752,170.873199 122.258217,194.453232 108.827400,221.098801 
	C111.120811,223.585678 113.136971,225.771927 114.755753,228.112579 
	C112.575874,228.511261 110.794540,228.956131 109.010674,228.966583 
	C98.966522,229.025360 88.921776,228.979675 78.877228,228.969620 
z"/>
<path fill="#00F360" opacity="1.000000" stroke="none" 
	d="
M163.904816,148.330414 
	C159.163300,147.975891 154.421799,147.621368 149.284271,147.109344 
	C158.374847,138.680374 167.719925,130.239227 177.383713,122.180260 
	C189.538528,112.043945 202.749817,103.482574 217.675690,97.231903 
	C218.382950,97.984764 218.652679,98.496254 218.929138,99.406052 
	C219.633347,102.193474 220.330841,104.582588 221.086609,107.308533 
	C223.092499,109.771606 225.040100,111.897865 227.170746,114.254303 
	C227.927567,115.018593 228.501343,115.552696 229.032196,116.478127 
	C226.698349,124.928383 224.407440,132.987320 221.713608,141.073029 
	C217.928314,141.064407 214.545929,141.029007 211.099396,140.590942 
	C213.458939,130.265320 215.882599,120.342346 218.596344,109.231705 
	C197.175018,119.592812 180.235886,133.535233 163.904816,148.330414 
z"/>
<path fill="#008C2C" opacity="1.000000" stroke="none" 
	d="
M278.987213,588.167358 
	C277.353149,589.109924 275.720184,590.856628 274.084778,590.858948 
	C266.044556,590.870361 258.004608,590.384216 249.962158,590.161987 
	C248.521530,590.122131 247.069473,590.496216 245.283844,590.888794 
	C235.616135,587.887634 225.791046,585.655273 217.075241,581.235413 
	C204.171326,574.691772 192.071762,566.566711 179.567993,559.219971 
	C178.636780,558.672852 177.193161,558.787964 176.017487,558.901917 
	C169.772522,559.507324 163.541183,560.187866 158.533035,555.352783 
	C160.644196,555.021790 162.463593,555.102844 164.269852,554.984131 
	C172.268555,554.458252 180.823868,557.171143 188.064941,551.272339 
	C188.963470,551.992859 189.691025,552.389954 190.355972,552.873169 
	C208.830215,566.297607 229.110001,575.921570 251.229843,581.582397 
	C260.440765,583.939636 269.732330,585.981873 278.987213,588.167358 
z"/>
<path fill="#009D35" opacity="1.000000" stroke="none" 
	d="
M150.073792,529.991272 
	C143.824417,523.262878 137.145615,516.877380 131.432159,509.721100 
	C123.953636,500.354065 117.237755,490.378143 110.459152,480.356689 
	C114.611336,479.938263 119.146423,483.263794 122.328552,478.106567 
	C124.423187,481.046478 125.999908,483.987793 128.085678,486.507812 
	C137.652512,498.066162 147.361740,509.506683 156.958282,521.314819 
	C155.894348,523.081116 154.891983,524.522095 153.635254,526.144897 
	C152.278519,527.548218 151.176163,528.769775 150.073792,529.991272 
z"/>
<path fill="#00B13F" opacity="1.000000" stroke="none" 
	d="
M87.163795,428.984741 
	C84.774872,419.000610 82.070976,409.078430 80.090958,399.013885 
	C78.323868,390.031586 77.356537,380.891937 76.488434,371.446045 
	C80.337547,370.704529 83.734505,370.338715 87.453804,370.230408 
	C89.165436,380.058716 90.299232,389.675598 92.015358,399.187408 
	C93.756187,408.836090 96.072098,418.381012 97.799866,428.128296 
	C94.030319,428.518372 90.597061,428.751556 87.163795,428.984741 
z"/>
<path fill="#00C147" opacity="1.000000" stroke="none" 
	d="
M87.131470,369.972900 
	C83.734505,370.338715 80.337547,370.704529 76.554001,371.026794 
	C76.107925,353.012115 76.026039,335.041046 76.032089,317.069946 
	C76.032570,315.653229 76.644623,314.236694 77.447433,312.496368 
	C81.224236,312.110382 84.526047,312.048096 87.900032,312.447418 
	C87.650871,318.325592 87.094002,323.740448 87.054535,329.159058 
	C86.955482,342.762787 87.090385,356.368195 87.131470,369.972900 
z"/>
<path fill="#00A539" opacity="1.000000" stroke="none" 
	d="
M87.117844,429.365112 
	C90.597061,428.751556 94.030319,428.518372 98.093941,428.346222 
	C104.172310,446.004974 112.030487,462.467346 122.045090,477.913910 
	C119.146423,483.263794 114.611336,479.938263 110.304115,480.043457 
	C99.503685,464.532806 92.640335,447.432831 87.117844,429.365112 
z"/>
<path fill="#00CF4E" opacity="1.000000" stroke="none" 
	d="
M87.827866,311.985779 
	C84.526047,312.048096 81.224236,312.110382 77.547150,312.079773 
	C76.809090,293.598053 79.733223,275.621765 84.386551,257.445435 
	C88.221931,258.417603 91.642250,259.754700 95.035172,261.485596 
	C94.681969,262.786224 94.180878,263.669678 94.056473,264.603333 
	C91.952507,280.393799 89.895363,296.190460 87.827866,311.985779 
z"/>
<path fill="#00D852" opacity="1.000000" stroke="none" 
	d="
M150.071259,530.364868 
	C151.176163,528.769775 152.278519,527.548218 154.033188,526.298950 
	C165.828308,526.502930 176.971100,526.734680 188.429764,527.142456 
	C189.440842,529.871094 190.136078,532.423767 190.374649,534.980347 
	C184.260605,535.337341 178.603210,535.690369 172.583862,535.958008 
	C170.525696,535.622253 168.829529,535.371887 166.708405,535.060669 
	C160.578461,534.991699 154.873474,534.983643 149.168488,534.975586 
	C149.468582,533.563232 149.768661,532.150818 150.071259,530.364868 
z"/>
<path fill="#00D852" opacity="1.000000" stroke="none" 
	d="
M255.967331,85.046280 
	C257.000916,87.422661 258.034485,89.799034 258.610016,92.569054 
	C252.762817,93.315285 247.373642,93.667877 241.630737,93.940552 
	C239.855972,93.581772 238.434952,93.302902 236.653168,92.821396 
	C230.488937,92.401985 224.685440,92.185226 218.881943,91.968468 
	C219.670471,89.743858 220.459000,87.519249 222.034576,85.136063 
	C233.870178,85.000427 244.918762,85.023354 255.967331,85.046280 
z"/>
<path fill="#00AF3D" opacity="1.000000" stroke="none" 
	d="
M152.164368,548.967957 
	C151.434525,547.236450 150.704697,545.505005 150.330109,543.253662 
	C156.127792,542.156006 161.570221,541.578186 167.348099,541.139954 
	C169.774994,541.174744 171.866425,541.070007 174.320099,541.168274 
	C180.065369,541.573425 185.448395,541.775635 190.896500,542.349731 
	C190.013168,544.830750 189.064758,546.940002 187.640503,549.039429 
	C175.497879,549.009094 163.831116,548.988525 152.164368,548.967957 
z"/>
<path fill="#00B642" opacity="1.000000" stroke="none" 
	d="
M77.171852,246.978760 
	C76.791206,245.240372 76.410561,243.501999 76.552109,241.379211 
	C82.366890,241.004700 87.659485,241.014572 93.217758,241.262939 
	C96.482224,243.496246 99.153130,243.809036 101.490936,240.022278 
	C107.248230,240.001434 112.541267,239.989426 117.904785,240.382996 
	C117.591667,242.852432 117.208061,244.916306 116.366806,246.982239 
	C102.996719,246.982468 90.084290,246.980621 77.171852,246.978760 
z"/>
<path fill="#00D852" opacity="1.000000" stroke="none" 
	d="
M101.026680,240.031113 
	C99.153130,243.809036 96.482224,243.496246 93.231041,240.884552 
	C92.982353,239.511795 92.986084,238.755890 93.258904,237.822845 
	C96.387863,235.230042 95.415909,234.114746 92.201958,234.047501 
	C87.096489,233.940613 81.987801,233.986755 76.880478,233.968170 
	C77.342209,232.418091 77.803932,230.868011 78.571442,229.143768 
	C88.921776,228.979675 98.966522,229.025360 109.010674,228.966583 
	C110.794540,228.956131 112.575874,228.511261 115.056778,228.279846 
	C116.448067,230.190613 117.140961,232.088547 117.376038,233.989395 
	C110.977257,233.992325 105.036270,233.992325 98.830688,233.992325 
	C99.825577,236.728180 100.426125,238.379654 101.026680,240.031113 
z"/>
<path fill="#00F15F" opacity="1.000000" stroke="none" 
	d="
M255.968109,84.756180 
	C244.918762,85.023354 233.870178,85.000427 222.344788,84.967079 
	C230.154205,73.008781 247.063461,73.273727 255.622681,83.792374 
	C255.960861,84.079353 255.964859,84.272713 255.968109,84.756180 
z"/>
<path fill="#00962D" opacity="1.000000" stroke="none" 
	d="
M95.062569,261.091797 
	C91.642250,259.754700 88.221931,258.417603 84.437698,257.049255 
	C83.123436,255.901047 82.173080,254.784088 81.445938,253.166809 
	C89.391815,252.444107 97.113823,252.105911 104.837509,252.061844 
	C107.564102,252.046280 110.294785,252.749542 112.876144,253.422852 
	C108.199829,259.437317 101.892502,260.890839 95.062569,261.091797 
z"/>
<path fill="#00A938" opacity="1.000000" stroke="none" 
	d="
M113.023605,253.124619 
	C110.294785,252.749542 107.564102,252.046280 104.837509,252.061844 
	C97.113823,252.105911 89.391815,252.444107 81.311035,252.881653 
	C79.722984,251.280792 78.493050,249.464752 77.217484,247.313736 
	C90.084290,246.980621 102.996719,246.982468 116.416824,247.331024 
	C115.624191,249.493332 114.323898,251.308975 113.023605,253.124619 
z"/>
<path fill="#009933" opacity="1.000000" stroke="none" 
	d="
M152.216095,549.298828 
	C163.831116,548.988525 175.497879,549.009094 187.603546,549.363708 
	C187.983246,550.128113 187.924042,550.558533 187.864807,550.988953 
	C180.823868,557.171143 172.268555,554.458252 164.269852,554.984131 
	C162.463593,555.102844 160.644196,555.021790 158.353897,555.043213 
	C156.007248,553.245728 154.137558,551.437744 152.216095,549.298828 
z"/>
<path fill="#00C147" opacity="1.000000" stroke="none" 
	d="
M167.012634,541.000366 
	C161.570221,541.578186 156.127792,542.156006 150.294006,542.892090 
	C149.609802,540.641113 149.316956,538.231995 149.096313,535.399170 
	C154.873474,534.983643 160.578461,534.991699 166.611389,535.385681 
	C166.963760,537.514526 166.988205,539.257446 167.012634,541.000366 
z"/>
<path fill="#00CB4B" opacity="1.000000" stroke="none" 
	d="
M218.568268,92.178467 
	C224.685440,92.185226 230.488937,92.401985 236.470428,93.121231 
	C236.116409,95.403152 235.584381,97.182602 234.582169,98.968430 
	C229.048798,98.985794 223.985596,98.996773 218.922424,99.007751 
	C218.652679,98.496254 218.382950,97.984764 218.044159,97.190269 
	C218.068268,95.401001 218.161423,93.894737 218.568268,92.178467 
z"/>
<path fill="#00CB4B" opacity="1.000000" stroke="none" 
	d="
M76.572235,234.166321 
	C81.987801,233.986755 87.096489,233.940613 92.201958,234.047501 
	C95.415909,234.114746 96.387863,235.230042 92.792747,237.823334 
	C86.760071,237.996994 81.462654,237.993027 76.165230,237.989059 
	C76.198151,236.780869 76.231071,235.572662 76.572235,234.166321 
z"/>
<path fill="#00C147" opacity="1.000000" stroke="none" 
	d="
M76.099976,238.360962 
	C81.462654,237.993027 86.760071,237.996994 92.523651,238.000488 
	C92.986084,238.755890 92.982353,239.511795 92.965347,240.646057 
	C87.659485,241.014572 82.366890,241.004700 76.617111,240.991455 
	C76.118187,240.236359 76.076454,239.484619 76.099976,238.360962 
z"/>
<path fill="#000000" opacity="1.000000" stroke="none" 
	d="
M188.064941,551.272339 
	C187.924042,550.558533 187.983246,550.128113 188.079407,549.373413 
	C189.064758,546.940002 190.013168,544.830750 190.956818,541.979553 
	C190.911804,539.150513 190.871552,537.063416 190.831299,534.976379 
	C190.136078,532.423767 189.440842,529.871094 188.273529,526.829956 
	C186.548935,524.900085 185.476517,523.235901 184.014374,522.053894 
	C175.317764,515.023254 166.249222,515.512695 157.019852,520.989502 
	C147.361740,509.506683 137.652512,498.066162 128.085678,486.507812 
	C125.999908,483.987793 124.423187,481.046478 122.328552,478.106567 
	C112.030487,462.467346 104.172310,446.004974 98.430222,428.189331 
	C96.072098,418.381012 93.756187,408.836090 92.015358,399.187408 
	C90.299232,389.675598 89.165436,380.058716 87.453812,370.230438 
	C87.090385,356.368195 86.955482,342.762787 87.054535,329.159058 
	C87.094002,323.740448 87.650871,318.325592 87.900032,312.447388 
	C89.895363,296.190460 91.952507,280.393799 94.056473,264.603333 
	C94.180878,263.669678 94.681969,262.786224 95.035172,261.485596 
	C101.892502,260.890839 108.199829,259.437317 112.876137,253.422852 
	C114.323898,251.308975 115.624191,249.493332 116.874466,247.328934 
	C117.208061,244.916306 117.591667,242.852432 117.962273,239.957794 
	C117.910797,237.413513 117.872322,235.699982 117.833847,233.986465 
	C117.140961,232.088547 116.448067,230.190613 115.454155,228.125427 
	C113.136971,225.771927 111.120811,223.585678 108.827400,221.098801 
	C122.258217,194.453232 139.895752,170.873199 162.052460,149.938019 
	C162.830521,149.330078 162.965057,148.921066 163.099594,148.512054 
	C163.260101,148.598434 163.420624,148.684830 163.742981,148.550812 
	C180.235886,133.535233 197.175018,119.592812 218.596344,109.231705 
	C215.882599,120.342346 213.458939,130.265320 210.917252,140.940109 
	C210.314529,143.201340 209.735245,144.687698 209.360825,146.223969 
	C207.268555,154.808838 205.225830,163.405746 202.984802,172.347473 
	C199.590805,184.793427 196.378204,196.890457 193.089844,209.387726 
	C189.971298,223.841660 186.928497,237.895355 183.562134,252.171982 
	C180.785019,270.582855 178.331467,288.770782 175.539215,307.223999 
	C175.476913,321.683777 175.360367,335.901611 176.201309,350.062531 
	C176.600464,356.783966 178.826859,363.396881 180.065613,370.351440 
	C178.329727,372.421021 176.753693,374.198151 175.010376,376.300110 
	C173.950287,379.074402 173.057510,381.523834 172.091019,384.396271 
	C172.307205,387.229614 172.597092,389.639984 172.925507,392.416870 
	C173.957764,394.892975 174.951492,397.002625 176.095184,399.413239 
	C180.401276,405.312469 185.785416,408.442810 192.973846,408.394104 
	C196.371170,415.285614 199.192245,422.161011 203.218933,428.237427 
	C209.332947,437.463715 216.283997,446.135345 223.030701,455.352234 
	C225.837402,458.994049 228.139236,462.701263 231.208206,465.594910 
	C246.335632,479.858124 261.666382,493.905670 276.960632,508.396881 
	C276.956665,509.500244 276.917419,510.236115 276.566284,511.180847 
	C276.557159,513.585266 276.859894,515.780823 277.110931,518.342529 
	C278.337463,521.155945 279.615723,523.603271 281.047729,526.353516 
	C287.833557,534.812439 296.559082,535.614319 305.680878,532.720398 
	C308.874695,531.707153 311.322357,528.341980 314.409943,525.878662 
	C315.848969,523.154297 316.988770,520.602051 318.438782,517.790588 
	C318.776520,515.345886 318.804077,513.160400 318.876312,510.607941 
	C318.320557,508.480591 317.720154,506.720276 317.059662,504.614624 
	C315.705383,502.498932 314.411194,500.728516 312.962463,498.648132 
	C306.489563,490.357605 290.856323,489.334778 282.587738,497.770752 
	C269.554688,485.973572 256.785126,474.331451 244.139114,462.556610 
	C240.906693,459.546844 238.065155,456.117279 234.891739,452.576538 
	C232.891113,450.009064 230.816696,447.892670 229.232101,445.457520 
	C220.706329,432.355072 212.302277,419.173401 204.045441,405.731628 
	C206.533188,402.980408 208.831711,400.516693 211.404678,397.850403 
	C212.396744,395.757751 213.114365,393.867706 213.888184,391.601501 
	C213.907532,388.808014 213.870697,386.390656 213.889099,383.590393 
	C212.997787,380.794647 212.051239,378.381744 211.042145,375.621368 
	C206.194138,367.301910 198.666428,365.456085 190.055664,365.505676 
	C189.989868,364.256989 190.016281,363.426422 189.942368,362.604919 
	C188.639679,348.127808 187.173691,333.662933 186.104477,319.168762 
	C185.783417,314.816406 186.560608,310.383087 186.893219,305.550903 
	C189.580826,287.740936 192.209869,270.366882 194.903839,252.585083 
	C198.257446,237.780884 201.546112,223.384415 204.910400,208.597107 
	C205.469559,206.502869 206.003159,204.811874 206.428360,203.094070 
	C208.910843,193.065048 211.367920,183.029739 214.011261,172.649933 
	C214.869995,170.009750 215.642517,167.738770 216.215561,165.418518 
	C218.219711,157.303604 220.155029,149.171692 222.116516,141.046249 
	C224.407440,132.987320 226.698349,124.928383 229.336212,116.564842 
	C230.469238,116.510605 231.255341,116.760979 232.032013,117.441086 
	C232.044159,119.026741 231.920486,120.206993 232.109421,121.334877 
	C234.436325,135.224625 236.808899,149.106750 239.238983,163.379059 
	C243.167786,179.858887 247.027267,195.950485 250.928528,212.441345 
	C257.941833,232.907623 264.913391,252.974670 271.939087,273.415710 
	C272.844116,275.891296 273.620605,278.026642 274.558228,280.088745 
	C279.377594,290.687897 284.238403,301.268219 288.924286,312.156799 
	C287.138489,313.955536 285.513123,315.452576 283.599548,317.114716 
	C281.171021,320.170197 279.030670,323.060608 276.592346,326.125916 
	C274.520020,329.864471 272.745728,333.428162 270.504822,337.000671 
	C263.534180,337.009460 257.030151,337.009460 249.969543,337.009460 
	C250.830231,339.695618 251.364487,341.362976 251.945465,343.409424 
	C252.639282,345.893127 253.286377,347.997711 253.958344,350.479675 
	C254.377213,352.243347 254.771194,353.629608 255.133392,355.380463 
	C255.692780,357.513306 256.283966,359.281555 256.925964,361.433685 
	C257.607941,363.891541 258.239136,365.965515 258.924255,368.425293 
	C259.631561,370.907654 260.284851,373.004242 260.965332,375.474060 
	C261.384064,377.235199 261.775604,378.623077 262.105957,380.380280 
	C262.657532,382.510101 263.270355,384.270599 263.936340,386.428772 
	C264.641907,389.244354 265.294220,391.662262 265.973145,394.477997 
	C266.099731,399.956970 268.718597,401.179474 273.628174,401.134125 
	C298.709198,400.902313 323.793945,401.073456 349.037537,401.397614 
	C361.561371,415.787689 373.925049,429.883759 386.379150,444.291565 
	C395.960724,454.436493 405.451843,464.269684 414.942963,474.102875 
	C422.086029,481.335022 429.229065,488.567200 436.668793,495.959351 
	C438.529022,497.797028 439.931641,499.672699 441.694275,501.105438 
	C444.252502,503.184753 445.205353,505.488800 443.659088,508.874146 
	C440.989594,515.844788 438.484772,522.519653 435.927002,529.581360 
	C434.269623,536.036072 432.665192,542.103882 431.113525,548.584595 
	C430.463806,554.696655 429.761292,560.395874 429.112915,566.544556 
	C429.701355,573.084961 430.235657,579.175903 430.968018,585.629272 
	C432.200867,591.510864 433.235657,597.029846 434.549896,602.806396 
	C436.123993,607.459290 437.418671,611.854553 439.099396,617.560608 
	C386.953522,599.364685 333.448853,593.437683 279.417603,588.108887 
	C269.732330,585.981873 260.440765,583.939636 251.229843,581.582397 
	C229.110001,575.921570 208.830215,566.297607 190.355972,552.873169 
	C189.691025,552.389954 188.963470,551.992859 188.064941,551.272339 
z"/>
<path fill="#000000" opacity="1.000000" stroke="none" 
	d="
M493.124390,385.613831 
	C491.445526,391.365234 489.724274,396.734955 487.752319,402.597229 
	C487.389893,403.386078 487.278168,403.682404 487.166473,403.978760 
	C487.138062,404.148529 487.109680,404.318268 487.123901,404.742676 
	C484.450745,412.402435 481.734955,419.807556 478.951813,427.586792 
	C474.979279,437.069458 471.074127,446.178040 467.123260,455.640289 
	C464.668518,461.858185 462.259460,467.722382 459.674866,473.876465 
	C456.699768,480.225891 453.900208,486.285461 450.530731,493.578552 
	C443.597260,486.600464 437.063599,480.024689 430.056580,472.981262 
	C419.740662,462.303894 409.898102,452.094177 399.901367,441.592346 
	C391.932526,432.796936 383.977844,424.416626 376.359863,415.740601 
	C372.310486,411.128754 368.844604,406.004578 365.530334,401.070190 
	C368.010895,400.982727 370.339569,401.654999 370.167542,398.024353 
	C370.089935,396.385620 371.245300,394.688538 371.911743,392.636047 
	C372.350800,390.526123 372.719421,388.798096 373.411316,386.866577 
	C374.100739,384.445709 374.466827,382.228302 374.998901,379.686279 
	C375.720795,377.578888 376.276733,375.796051 376.917419,373.634338 
	C377.374451,371.515625 377.746765,369.775787 378.421326,367.821472 
	C379.190948,365.418182 379.658325,363.229370 380.416748,360.825653 
	C381.083649,358.745819 381.459503,356.880890 382.006531,354.687164 
	C382.474609,352.937866 382.771545,351.517365 383.354065,349.859741 
	C384.145538,347.431641 384.651398,345.240723 385.427917,342.804871 
	C385.965973,340.865601 386.233368,339.171265 386.579590,336.977417 
	C379.429565,336.977417 372.743073,336.977417 365.914978,336.642212 
	C363.885406,332.854980 361.997437,329.402924 360.052734,325.603149 
	C357.701233,322.486938 355.406494,319.718475 352.948181,316.651764 
	C346.186493,312.567017 339.588348,308.780518 333.121094,304.674622 
	C336.556671,301.253265 339.861298,298.151337 343.471588,294.888428 
	C344.462524,292.822327 345.147766,290.917175 346.022369,288.667908 
	C346.515991,286.561829 346.820282,284.799896 347.449890,282.785553 
	C347.460815,279.032745 347.146362,275.532349 346.882874,271.662598 
	C345.663788,268.508087 344.393738,265.722900 342.962891,262.638000 
	C340.140747,259.719269 337.833435,256.547638 334.756836,254.576813 
	C321.296478,245.954285 302.240936,249.605896 294.654297,262.069702 
	C292.958984,265.511749 291.563934,268.771667 290.112427,272.444702 
	C289.758667,275.914337 289.461334,278.970886 288.967102,282.266724 
	C286.884491,278.989532 284.998810,275.473022 283.047607,271.582428 
	C276.265533,252.134827 269.548950,233.061325 262.880676,213.601151 
	C258.902100,196.139053 254.875153,179.063660 250.768158,161.601028 
	C249.939514,157.426743 249.035538,153.662643 248.472015,149.848236 
	C246.905853,139.246964 245.481216,128.624802 244.368530,117.967972 
	C247.860489,115.965088 250.984604,114.005119 254.398468,111.889305 
	C256.149689,110.112160 257.611145,108.490860 259.458496,106.927383 
	C261.832123,107.645630 263.867645,108.189873 265.800140,108.984642 
	C282.863007,116.001976 299.907623,123.063805 317.131531,130.424988 
	C326.486725,135.188583 335.667969,139.639648 344.893555,144.451218 
	C345.010223,145.533890 345.082550,146.256042 345.088684,147.373352 
	C345.402893,149.839737 345.783295,151.910980 346.208923,154.315033 
	C347.464142,156.449783 348.674194,158.251709 349.941101,160.402588 
	C350.811432,161.734100 351.471924,162.919357 352.462524,163.667419 
	C360.915771,170.050964 369.751221,170.436417 379.049072,165.433136 
	C392.105743,177.169373 404.992828,188.611328 417.916840,200.455750 
	C417.594452,203.230621 417.235168,205.603027 416.559387,208.194489 
	C416.551453,210.933975 416.860046,213.454453 417.116211,216.327942 
	C418.339722,218.804657 419.615723,220.928360 421.045441,223.353912 
	C426.372131,230.982559 433.992737,231.427643 441.956665,231.383759 
	C447.868744,242.212982 453.837402,252.629120 459.570038,263.173584 
	C462.576172,268.702972 465.168579,274.457275 467.980713,280.480957 
	C474.064697,296.231445 480.115784,311.610931 486.166870,326.990448 
	C489.864075,338.531036 493.561279,350.071594 497.561829,361.827515 
	C499.336182,370.404907 494.990723,377.567230 493.124390,385.613831 
z"/>
<path fill="#00A539" opacity="1.000000" stroke="none" 
	d="
M400.055542,441.884460 
	C409.898102,452.094177 419.740662,462.303894 429.770630,472.800964 
	C426.715485,473.546692 423.483978,474.147430 420.225494,474.400879 
	C418.685516,474.520660 417.093842,473.975311 415.234253,473.917084 
	C405.451843,464.269684 395.960724,454.436493 386.818939,444.293732 
	C391.464020,443.284241 395.759796,442.584351 400.055542,441.884460 
z"/>
<path fill="#000000" opacity="1.000000" stroke="none" 
	d="
M507.549011,256.798615 
	C508.265503,263.056946 508.651794,269.073547 509.102509,275.542969 
	C509.124329,282.686127 509.081726,289.376465 509.103210,296.531250 
	C508.791229,302.041870 508.415131,307.088074 508.102722,312.565277 
	C507.437195,319.359314 506.708038,325.722351 505.929504,332.525665 
	C505.137054,336.026581 504.394043,339.087219 503.474701,342.874084 
	C501.424591,336.628845 499.576141,330.997955 497.368347,324.770630 
	C495.011230,318.337524 493.263153,312.400146 490.959045,306.686981 
	C487.200348,297.366882 483.078918,288.193115 479.057617,278.578613 
	C477.387634,274.294769 476.074890,270.227936 474.098999,266.513947 
	C466.881744,252.947815 459.443329,239.499344 452.357056,225.858704 
	C453.120209,224.824661 453.614532,223.938461 454.405640,222.882416 
	C455.744507,220.466644 456.786682,218.220734 457.907990,215.579926 
	C458.012726,212.423492 458.038300,209.661926 458.032318,206.514313 
	C457.040375,203.737289 456.079987,201.346298 455.057770,198.607727 
	C449.056274,188.510895 437.319977,186.329361 426.637817,191.275131 
	C412.871613,179.592682 399.498901,168.244141 386.101562,156.585983 
	C386.329865,155.511795 386.582794,154.747223 386.894501,153.637711 
	C387.248688,152.192688 387.544067,151.092621 387.900513,149.594391 
	C387.921875,148.126114 387.882172,147.055954 387.888916,145.614120 
	C387.567871,143.821777 387.200378,142.401123 386.780243,140.647980 
	C385.521149,138.533752 384.314697,136.752045 383.046906,134.616501 
	C376.004120,125.273987 362.157990,122.160271 349.374817,133.723083 
	C345.622589,131.803833 341.872498,129.880493 338.029236,127.713257 
	C337.633911,127.365456 337.331757,127.261566 336.786560,127.080429 
	C336.378540,126.961906 336.213623,126.920616 335.875702,126.568573 
	C327.400299,122.491112 319.207184,118.456650 310.772430,115.014259 
	C293.926361,108.139038 276.947815,101.588470 260.018982,94.701630 
	C260.014038,94.499428 260.026642,94.095093 260.026642,94.095093 
	C270.897705,92.064369 281.696442,89.345177 292.659851,88.193413 
	C303.991913,87.002914 315.483063,87.302238 326.906158,87.007721 
	C353.820068,86.313782 380.429565,89.033470 406.033508,97.313339 
	C419.869904,101.787804 432.869904,108.848618 446.565399,114.892014 
	C454.629730,127.235031 462.422241,139.399643 470.093292,151.640381 
	C472.332489,155.213486 474.225555,159.003540 476.579956,162.866760 
	C481.915436,174.312790 486.952576,185.584305 491.975922,196.861938 
	C492.631073,198.332779 493.215546,199.835114 493.999634,201.657043 
	C496.916382,211.274414 499.677338,220.554352 502.401123,229.845184 
	C502.718292,230.927002 502.829803,232.069092 503.101379,233.588425 
	C504.517029,241.514709 505.867889,249.035812 507.549011,256.798615 
z"/>
<path fill="#00CB4B" opacity="1.000000" stroke="none" 
	d="
M479.110535,278.957581 
	C483.078918,288.193115 487.200348,297.366882 490.959045,306.686981 
	C493.263153,312.400146 495.011230,318.337524 497.059723,324.564331 
	C494.445953,329.182007 490.582520,327.523560 486.560913,327.006714 
	C480.115784,311.610931 474.064697,296.231445 468.283997,280.293182 
	C472.073151,279.475494 475.591827,279.216522 479.110535,278.957581 
z"/>
<path fill="#00C74A" opacity="1.000000" stroke="none" 
	d="
M259.899780,93.880371 
	C260.026642,94.095093 260.014038,94.499428 260.010620,95.132355 
	C259.936371,97.202217 259.865509,98.639153 259.390747,100.017372 
	C253.699951,99.657478 248.413025,99.356308 243.095154,98.680786 
	C242.704300,96.877769 242.344391,95.449112 241.984482,94.020462 
	C247.373642,93.667877 252.762817,93.315285 258.630249,92.943115 
	C259.351593,93.151535 259.573090,93.398903 259.899780,93.880371 
z"/>
<path fill="#00B13F" opacity="1.000000" stroke="none" 
	d="
M487.315186,403.807373 
	C487.278168,403.682404 487.389893,403.386078 487.731689,402.984253 
	C487.821320,403.147949 487.655334,403.400360 487.315186,403.807373 
z"/>
<path fill="#00F360" opacity="1.000000" stroke="none" 
	d="
M162.959671,148.762756 
	C162.965057,148.921066 162.830521,149.330078 162.362946,149.794357 
	C162.293198,149.570908 162.556473,149.292175 162.959671,148.762756 
z"/>
<path fill="#00E95B" opacity="1.000000" stroke="none" 
	d="
M203.166168,171.998535 
	C205.225830,163.405746 207.268555,154.808838 209.360825,146.223969 
	C209.735245,144.687698 210.314529,143.201340 210.981384,141.342773 
	C214.545929,141.029007 217.928314,141.064407 221.713608,141.073029 
	C220.155029,149.171692 218.219711,157.303604 216.215561,165.418518 
	C215.642517,167.738770 214.869995,170.009750 213.581329,172.650650 
	C209.704514,172.664825 206.435349,172.331696 203.166168,171.998535 
z"/>
<path fill="#00B13F" opacity="1.000000" stroke="none" 
	d="
M243.126099,99.055138 
	C248.413025,99.356308 253.699951,99.657478 259.384033,100.392548 
	C259.421814,102.568367 259.062378,104.310280 258.252991,106.043480 
	C248.315933,106.023178 238.828033,105.939095 229.342239,106.045059 
	C226.567841,106.076050 223.799484,106.647804 221.028351,106.971710 
	C220.330841,104.582588 219.633347,102.193474 218.929138,99.406052 
	C223.985596,98.996773 229.048798,98.985794 234.805847,99.199829 
	C238.210968,102.790573 240.682434,101.209801 243.126099,99.055138 
z"/>
<path fill="#00A137" opacity="1.000000" stroke="none" 
	d="
M221.086609,107.308533 
	C223.799484,106.647804 226.567841,106.076050 229.342239,106.045059 
	C238.828033,105.939095 248.315933,106.023178 258.352570,106.244820 
	C258.902100,106.454872 259.072601,106.869560 259.072601,106.869560 
	C257.611145,108.490860 256.149689,110.112160 253.922455,111.878860 
	C246.166595,112.014977 239.172440,111.873039 232.189362,112.089386 
	C230.437180,112.143677 228.720642,113.348213 226.987717,114.024117 
	C225.040100,111.897865 223.092499,109.771606 221.086609,107.308533 
z"/>
<path fill="#00962D" opacity="1.000000" stroke="none" 
	d="
M227.170746,114.254303 
	C228.720642,113.348213 230.437180,112.143677 232.189362,112.089386 
	C239.172440,111.873039 246.166595,112.014977 253.632690,112.034714 
	C250.984604,114.005119 247.860489,115.965088 243.918945,117.974014 
	C239.414825,117.685760 235.728119,117.348549 232.041428,117.011345 
	C231.255341,116.760979 230.469238,116.510605 229.379135,116.173515 
	C228.501343,115.552696 227.927567,115.018593 227.170746,114.254303 
z"/>
<path fill="#00F15F" opacity="1.000000" stroke="none" 
	d="
M156.958282,521.314819 
	C166.249222,515.512695 175.317764,515.023254 184.014374,522.053894 
	C185.476517,523.235901 186.548935,524.900085 187.957672,526.653931 
	C176.971100,526.734680 165.828308,526.502930 154.287567,526.117126 
	C154.891983,524.522095 155.894348,523.081116 156.958282,521.314819 
z"/>
<path fill="#00C147" opacity="1.000000" stroke="none" 
	d="
M190.374634,534.980347 
	C190.871552,537.063416 190.911804,539.150513 190.891724,541.607727 
	C185.448395,541.775635 180.065369,541.573425 174.309921,540.808167 
	C173.606949,538.844543 173.276398,537.444031 172.945831,536.043457 
	C178.603210,535.690369 184.260605,535.337341 190.374634,534.980347 
z"/>
<path fill="#009431" opacity="1.000000" stroke="none" 
	d="
M172.583862,535.958008 
	C173.276398,537.444031 173.606949,538.844543 173.947693,540.605225 
	C171.866425,541.070007 169.774994,541.174744 167.348083,541.139893 
	C166.988205,539.257446 166.963760,537.514526 167.036331,535.446594 
	C168.829529,535.371887 170.525696,535.622253 172.583862,535.958008 
z"/>
<path fill="#00F561" opacity="1.000000" stroke="none" 
	d="
M243.095154,98.680786 
	C240.682434,101.209801 238.210968,102.790573 235.276031,99.193443 
	C235.584381,97.182602 236.116409,95.403152 236.831177,93.323868 
	C238.434952,93.302902 239.855972,93.581772 241.630737,93.940552 
	C242.344391,95.449112 242.704300,96.877769 243.095154,98.680786 
z"/>
<path fill="#00CB4B" opacity="1.000000" stroke="none" 
	d="
M117.376038,233.989395 
	C117.872322,235.699982 117.910797,237.413513 117.891785,239.552231 
	C112.541267,239.989426 107.248230,240.001434 101.490936,240.022278 
	C100.426125,238.379654 99.825577,236.728180 98.830688,233.992325 
	C105.036270,233.992325 110.977257,233.992325 117.376038,233.989395 
z"/>
<path fill="#00A137" opacity="1.000000" stroke="none" 
	d="
M360.109467,325.950867 
	C361.997437,329.402924 363.885406,332.854980 365.442719,336.647339 
	C333.731842,336.989044 302.351654,336.990448 270.971436,336.991852 
	C272.745728,333.428162 274.520020,329.864471 277.068298,326.136047 
	C305.264648,325.964447 332.687073,325.957672 360.109467,325.950867 
z"/>
<path fill="#00CB4B" opacity="1.000000" stroke="none" 
	d="
M283.113098,271.956543 
	C284.998810,275.473022 286.884491,278.989532 289.425140,282.260986 
	C306.656555,282.010406 323.233276,281.962494 339.809296,282.045685 
	C342.249329,282.057922 344.686249,282.691742 347.124573,283.037964 
	C346.820282,284.799896 346.515991,286.561829 345.564453,288.665344 
	C329.148926,289.004883 313.380585,288.976227 297.612427,289.014771 
	C291.807556,289.028961 291.546539,289.541870 294.188629,295.331573 
	C296.228455,298.431183 298.118225,301.228577 299.877960,304.341705 
	C296.193542,307.056702 292.639130,309.455933 289.084717,311.855164 
	C284.238403,301.268219 279.377594,290.687897 274.558228,280.088745 
	C273.620605,278.026642 272.844116,275.891296 272.394104,273.407837 
	C276.234344,272.669495 279.673706,272.313019 283.113098,271.956543 
z"/>
<path fill="#00F561" opacity="1.000000" stroke="none" 
	d="
M371.841248,393.017914 
	C371.245300,394.688538 370.089935,396.385620 370.167542,398.024353 
	C370.339569,401.654999 368.010895,400.982727 365.057129,401.050110 
	C359.071747,401.082245 353.974579,401.092926 348.877411,401.103607 
	C323.793945,401.073456 298.709198,400.902313 273.628174,401.134125 
	C268.718597,401.179474 266.099731,399.956970 266.333069,394.266113 
	C268.630798,393.437683 270.594971,393.030334 272.559570,393.028351 
	C305.653442,392.994904 338.747345,393.012024 371.841248,393.017914 
z"/>
<path fill="#007D25" opacity="1.000000" stroke="none" 
	d="
M270.504822,337.000671 
	C302.351654,336.990448 333.731842,336.989044 365.584351,336.982544 
	C372.743073,336.977417 379.429565,336.977417 386.579590,336.977417 
	C386.233368,339.171265 385.965973,340.865601 384.948242,342.794830 
	C340.098175,343.029907 295.998474,343.030090 251.898743,343.030304 
	C251.364487,341.362976 250.830231,339.695618 249.969543,337.009460 
	C257.030151,337.009460 263.534180,337.009460 270.504822,337.000671 
z"/>
<path fill="#00A137" opacity="1.000000" stroke="none" 
	d="
M276.925354,508.029358 
	C261.666382,493.905670 246.335632,479.858124 231.208206,465.594910 
	C228.139236,462.701263 225.837402,458.994049 223.447662,455.381653 
	C227.637177,455.110382 232.252411,458.647491 235.044037,452.880554 
	C238.065155,456.117279 240.906693,459.546844 244.139114,462.556610 
	C256.785126,474.331451 269.554688,485.973572 282.584961,498.035522 
	C282.861664,498.580017 282.831726,498.754028 282.538452,499.123291 
	C281.151337,501.204254 280.027527,503.089935 278.717102,505.216705 
	C277.995453,506.315002 277.460388,507.172180 276.925354,508.029358 
z"/>
<path fill="#00882A" opacity="1.000000" stroke="none" 
	d="
M251.945465,343.409424 
	C295.998474,343.030090 340.098175,343.029907 384.677582,343.039734 
	C384.651398,345.240723 384.145538,347.431641 382.993469,349.645691 
	C380.550140,349.445740 378.753204,349.029755 376.955841,349.028046 
	C338.038269,348.990723 299.120605,348.982544 260.203125,349.046539 
	C258.112671,349.049988 256.023315,349.734741 253.933472,350.102295 
	C253.286377,347.997711 252.639282,345.893127 251.945465,343.409424 
z"/>
<path fill="#009431" opacity="1.000000" stroke="none" 
	d="
M253.958344,350.479675 
	C256.023315,349.734741 258.112671,349.049988 260.203125,349.046539 
	C299.120605,348.982544 338.038269,348.990723 376.955841,349.028046 
	C378.753204,349.029755 380.550140,349.445740 382.707886,349.882812 
	C382.771545,351.517365 382.474609,352.937866 381.548828,354.683594 
	C339.001678,355.011230 297.083435,355.013550 255.165192,355.015869 
	C254.771194,353.629608 254.377213,352.243347 253.958344,350.479675 
z"/>
<path fill="#00A137" opacity="1.000000" stroke="none" 
	d="
M255.133392,355.380463 
	C297.083435,355.013550 339.001678,355.011230 381.377625,355.012451 
	C381.459503,356.880890 381.083649,358.745819 379.939911,360.817261 
	C362.508026,361.015747 345.843353,360.936554 329.180817,361.089783 
	C327.107147,361.108856 325.044830,362.360352 322.529114,363.023193 
	C319.376373,362.975769 316.671753,362.945892 313.768433,362.593384 
	C311.873566,361.847412 310.178955,361.063751 308.480988,361.056366 
	C291.279358,360.981506 274.077179,361.033447 256.875153,361.049805 
	C256.283966,359.281555 255.692780,357.513306 255.133392,355.380463 
z"/>
<path fill="#00E659" opacity="1.000000" stroke="none" 
	d="
M371.911743,392.636047 
	C338.747345,393.012024 305.653442,392.994904 272.559570,393.028351 
	C270.594971,393.030334 268.630798,393.437683 266.306488,393.868286 
	C265.294220,391.662262 264.641907,389.244354 264.412537,386.423218 
	C298.473907,386.013702 332.112335,385.985168 365.750610,386.047180 
	C368.197021,386.051697 370.642242,386.713715 373.088013,387.070038 
	C372.719421,388.798096 372.350800,390.526123 371.911743,392.636047 
z"/>
<path fill="#00D852" opacity="1.000000" stroke="none" 
	d="
M283.047607,271.582428 
	C279.673706,272.313019 276.234344,272.669495 272.339935,273.033813 
	C264.913391,252.974670 257.941833,232.907623 251.308624,212.464600 
	C255.375412,212.721695 259.103882,213.354767 262.832336,213.987854 
	C269.548950,233.061325 276.265533,252.134827 283.047607,271.582428 
z"/>
<path fill="#00902F" opacity="1.000000" stroke="none" 
	d="
M360.052734,325.603149 
	C332.687073,325.957672 305.264648,325.964447 277.366272,325.961121 
	C279.030670,323.060608 281.171021,320.170197 284.075989,317.125000 
	C307.597687,316.963470 330.354706,316.956757 353.111755,316.950012 
	C355.406494,319.718475 357.701233,322.486938 360.052734,325.603149 
z"/>
<path fill="#00C147" opacity="1.000000" stroke="none" 
	d="
M180.225464,370.058960 
	C178.826859,363.396881 176.600464,356.783966 176.201309,350.062531 
	C175.360367,335.901611 175.476913,321.683777 175.931610,307.264679 
	C180.053329,306.688965 183.444016,306.337891 186.834686,305.986816 
	C186.560608,310.383087 185.783417,314.816406 186.104477,319.168762 
	C187.173691,333.662933 188.639679,348.127808 189.942368,362.604919 
	C190.016281,363.426422 189.989868,364.256989 189.729218,365.664062 
	C186.374039,367.516205 183.299744,368.787598 180.225464,370.058960 
z"/>
<path fill="#008428" opacity="1.000000" stroke="none" 
	d="
M352.948181,316.651764 
	C330.354706,316.956757 307.597687,316.963470 284.364197,316.959930 
	C285.513123,315.452576 287.138489,313.955536 288.924286,312.156799 
	C292.639130,309.455933 296.193542,307.056702 300.272064,304.375244 
	C302.557098,304.283173 304.461060,305.004822 306.055237,304.575653 
	C315.108063,302.138458 324.045563,302.782227 332.990204,304.994049 
	C339.588348,308.780518 346.186493,312.567017 352.948181,316.651764 
z"/>
<path fill="#00D852" opacity="1.000000" stroke="none" 
	d="
M373.411316,386.866577 
	C370.642242,386.713715 368.197021,386.051697 365.750610,386.047180 
	C332.112335,385.985168 298.473907,386.013702 264.359314,386.025574 
	C263.270355,384.270599 262.657532,382.510101 262.563904,380.378052 
	C300.333008,380.007935 337.582977,380.009399 374.832947,380.010864 
	C374.466827,382.228302 374.100739,384.445709 373.411316,386.866577 
z"/>
<path fill="#00AB3C" opacity="1.000000" stroke="none" 
	d="
M234.891754,452.576538 
	C232.252411,458.647491 227.637177,455.110382 223.296478,455.071960 
	C216.283997,446.135345 209.332947,437.463715 203.218933,428.237427 
	C199.192245,422.161011 196.371170,415.285614 193.387848,408.387390 
	C197.129044,407.344208 200.492630,406.681641 203.856216,406.019104 
	C212.302277,419.173401 220.706329,432.355072 229.232101,445.457520 
	C230.816696,447.892670 232.891113,450.009064 234.891754,452.576538 
z"/>
<path fill="#00AF3D" opacity="1.000000" stroke="none" 
	d="
M349.037537,401.397614 
	C353.974579,401.092926 359.071747,401.082245 364.642120,401.091614 
	C368.844604,406.004578 372.310486,411.128754 376.359863,415.740601 
	C383.977844,424.416626 391.932526,432.796936 399.901367,441.592346 
	C395.759796,442.584351 391.464020,443.284241 386.728516,443.981995 
	C373.925049,429.883759 361.561371,415.787689 349.037537,401.397614 
z"/>
<path fill="#00CB4B" opacity="1.000000" stroke="none" 
	d="
M374.998901,379.686279 
	C337.582977,380.009399 300.333008,380.007935 262.625092,380.008728 
	C261.775604,378.623077 261.384064,377.235199 261.324646,375.259155 
	C263.451202,374.447205 265.244995,374.034576 267.040009,374.029449 
	C281.987640,373.986603 296.935455,374.018829 312.133911,374.292480 
	C318.529510,378.506042 320.475800,378.231537 326.230377,372.904419 
	C328.688507,373.437134 330.801147,373.950256 332.916382,373.961212 
	C347.554840,374.037079 362.193878,374.008331 376.832703,374.013184 
	C376.276733,375.796051 375.720795,377.578888 374.998901,379.686279 
z"/>
<path fill="#00CF4E" opacity="1.000000" stroke="none" 
	d="
M186.893219,305.550903 
	C183.444016,306.337891 180.053329,306.688965 176.270279,306.999390 
	C178.331467,288.770782 180.785019,270.582855 183.946213,252.326477 
	C188.048859,252.502960 191.443893,252.747879 194.838913,252.992813 
	C192.209869,270.366882 189.580826,287.740936 186.893219,305.550903 
z"/>
<path fill="#00E659" opacity="1.000000" stroke="none" 
	d="
M262.880676,213.601166 
	C259.103882,213.354767 255.375412,212.721695 251.266846,212.065369 
	C247.027267,195.950485 243.167786,179.858887 239.628571,163.394073 
	C243.581955,162.676682 247.215073,162.332458 250.848190,161.988251 
	C254.875153,179.063660 258.902100,196.139053 262.880676,213.601166 
z"/>
<path fill="#00F15F" opacity="1.000000" stroke="none" 
	d="
M250.768158,161.601028 
	C247.215073,162.332458 243.581955,162.676682 239.559265,163.005859 
	C236.808899,149.106750 234.436325,135.224625 232.109421,121.334877 
	C231.920486,120.206993 232.044159,119.026741 232.032013,117.441086 
	C235.728119,117.348549 239.414825,117.685760 243.551086,118.016922 
	C245.481216,128.624802 246.905853,139.246964 248.472015,149.848236 
	C249.035538,153.662643 249.939514,157.426743 250.768158,161.601028 
z"/>
<path fill="#00D852" opacity="1.000000" stroke="none" 
	d="
M194.903839,252.585083 
	C191.443893,252.747879 188.048859,252.502960 184.269760,252.103546 
	C186.928497,237.895355 189.971298,223.841660 193.483078,209.432098 
	C197.579636,209.046814 201.207199,209.017380 204.834778,208.987961 
	C201.546112,223.384415 198.257446,237.780884 194.903839,252.585083 
z"/>
<path fill="#00E659" opacity="1.000000" stroke="none" 
	d="
M204.910400,208.597107 
	C201.207199,209.017380 197.579636,209.046814 193.558838,209.031860 
	C196.378204,196.890457 199.590805,184.793427 202.984802,172.347473 
	C206.435349,172.331696 209.704514,172.664825 213.403625,172.997253 
	C211.367920,183.029739 208.910843,193.065048 206.428360,203.094070 
	C206.003159,204.811874 205.469559,206.502869 204.910400,208.597107 
z"/>
<path fill="#00AF3D" opacity="1.000000" stroke="none" 
	d="
M256.925964,361.433685 
	C274.077179,361.033447 291.279358,360.981506 308.480988,361.056366 
	C310.178955,361.063751 311.873566,361.847412 313.525452,362.823242 
	C312.596954,364.931793 311.712708,366.487854 310.370605,368.034882 
	C292.898621,368.030365 275.884460,368.034943 258.870300,368.039490 
	C258.239136,365.965515 257.607941,363.891541 256.925964,361.433685 
z"/>
<path fill="#00A938" opacity="1.000000" stroke="none" 
	d="
M280.893982,526.050598 
	C279.615723,523.603271 278.337463,521.155945 277.568054,518.348633 
	C280.530914,517.994080 282.984924,518.004028 285.438965,518.004028 
	C292.989502,518.003906 292.989502,518.002441 294.178101,510.710693 
	C296.616486,510.622711 298.843964,510.784302 301.122864,511.290100 
	C300.601990,517.428711 303.838043,518.526489 308.741180,518.062622 
	C311.842957,517.769104 314.997650,518.034851 318.128601,518.049805 
	C316.988770,520.602051 315.848969,523.154297 313.933990,525.868042 
	C302.403900,526.036499 291.648926,526.043518 280.893982,526.050598 
z"/>
<path fill="#00BE43" opacity="1.000000" stroke="none" 
	d="
M172.886993,392.050354 
	C172.597092,389.639984 172.307205,387.229614 172.548706,384.401886 
	C186.664703,383.980774 200.249283,383.977051 213.833862,383.973297 
	C213.870697,386.390656 213.907532,388.808014 213.430481,391.605682 
	C199.573395,392.007446 186.230194,392.028900 172.886993,392.050354 
z"/>
<path fill="#00D852" opacity="1.000000" stroke="none" 
	d="
M213.889099,383.590393 
	C200.249283,383.977051 186.664703,383.980774 172.622437,383.978912 
	C173.057510,381.523834 173.950287,379.074402 175.467667,376.301758 
	C187.763062,375.975342 199.433884,375.972107 211.104691,375.968872 
	C212.051239,378.381744 212.997787,380.794647 213.889099,383.590393 
z"/>
<path fill="#00BE43" opacity="1.000000" stroke="none" 
	d="
M258.924255,368.425293 
	C275.884460,368.034943 292.898621,368.030365 310.411438,368.415161 
	C311.234497,370.545807 311.558868,372.287109 311.883240,374.028412 
	C296.935455,374.018829 281.987640,373.986603 267.040009,374.029449 
	C265.244995,374.034576 263.451202,374.447205 261.297485,374.885925 
	C260.284851,373.004242 259.631561,370.907654 258.924255,368.425293 
z"/>
<path fill="#00962D" opacity="1.000000" stroke="none" 
	d="
M204.045441,405.731598 
	C200.492630,406.681641 197.129044,407.344208 193.351471,408.013489 
	C185.785416,408.442810 180.401276,405.312469 176.454025,399.198212 
	C178.276031,398.457916 179.888260,398.047424 181.502380,398.039856 
	C191.378098,397.993500 201.254242,398.038483 211.130234,398.053009 
	C208.831711,400.516693 206.533188,402.980408 204.045441,405.731598 
z"/>
<path fill="#00F15F" opacity="1.000000" stroke="none" 
	d="
M211.042145,375.621368 
	C199.433884,375.972107 187.763062,375.975342 175.634964,375.976929 
	C176.753693,374.198151 178.329727,372.421021 180.065613,370.351440 
	C183.299744,368.787598 186.374039,367.516205 189.774750,366.086426 
	C198.666428,365.456085 206.194138,367.301910 211.042145,375.621368 
z"/>
<path fill="#00AB3C" opacity="1.000000" stroke="none" 
	d="
M211.404678,397.850403 
	C201.254242,398.038483 191.378098,397.993500 181.502380,398.039856 
	C179.888260,398.047424 178.276031,398.457916 176.304077,398.897217 
	C174.951492,397.002625 173.957764,394.892975 172.925507,392.416870 
	C186.230194,392.028900 199.573395,392.007446 213.374298,391.981812 
	C213.114365,393.867706 212.396744,395.757751 211.404678,397.850403 
z"/>
<path fill="#00D451" opacity="1.000000" stroke="none" 
	d="
M301.071472,510.945892 
	C298.843964,510.784302 296.616486,510.622711 293.713806,510.721497 
	C287.651825,510.978577 282.265015,510.975281 276.878174,510.971954 
	C276.917419,510.236115 276.956665,509.500244 276.960632,508.396881 
	C277.460388,507.172180 277.995453,506.315002 279.195435,505.222931 
	C292.280151,504.978668 304.699951,504.969299 317.119751,504.959930 
	C317.720154,506.720276 318.320557,508.480591 318.419250,510.612610 
	C312.302185,510.971497 306.686829,510.958679 301.071472,510.945892 
z"/>
<path fill="#00962D" opacity="1.000000" stroke="none" 
	d="
M281.047729,526.353516 
	C291.648926,526.043518 302.403900,526.036499 313.634796,526.040161 
	C311.322357,528.341980 308.874695,531.707153 305.680878,532.720398 
	C296.559082,535.614319 287.833557,534.812439 281.047729,526.353516 
z"/>
<path fill="#00DE56" opacity="1.000000" stroke="none" 
	d="
M317.059662,504.614624 
	C304.699951,504.969299 292.280151,504.978668 279.382019,504.981812 
	C280.027527,503.089935 281.151337,501.204254 282.943604,499.282715 
	C293.446991,499.150543 303.282013,499.054321 313.117004,498.958099 
	C314.411194,500.728516 315.705383,502.498932 317.059662,504.614624 
z"/>
<path fill="#00F360" opacity="1.000000" stroke="none" 
	d="
M312.962463,498.648132 
	C303.282013,499.054321 293.446991,499.150543 283.206879,499.087402 
	C282.831726,498.754028 282.861664,498.580017 282.894348,498.141235 
	C290.856323,489.334778 306.489563,490.357605 312.962463,498.648132 
z"/>
<path fill="#00BE43" opacity="1.000000" stroke="none" 
	d="
M301.122864,511.290100 
	C306.686829,510.958679 312.302185,510.971497 318.374573,510.979614 
	C318.804077,513.160400 318.776520,515.345886 318.438782,517.790649 
	C314.997650,518.034851 311.842957,517.769104 308.741180,518.062622 
	C303.838043,518.526489 300.601990,517.428711 301.122864,511.290100 
z"/>
<path fill="#00BE43" opacity="1.000000" stroke="none" 
	d="
M276.566284,511.180847 
	C282.265015,510.975281 287.651825,510.978577 293.502930,510.971100 
	C292.989502,518.002441 292.989502,518.003906 285.438965,518.004028 
	C282.984924,518.004028 280.530914,517.994080 277.619751,517.982544 
	C276.859894,515.780823 276.557159,513.585266 276.566284,511.180847 
z"/>
<path fill="#00E95B" opacity="1.000000" stroke="none" 
	d="
M386.126160,156.895599 
	C399.498901,168.244141 412.871613,179.592682 426.637817,191.275131 
	C437.319977,186.329361 449.056274,188.510895 454.663391,198.764832 
	C452.384888,199.513855 450.440613,199.953247 448.492767,199.969818 
	C438.288971,200.056671 428.084290,200.036362 417.879913,200.053284 
	C404.992828,188.611328 392.105743,177.169373 379.122559,165.107239 
	C380.031738,163.337860 381.037048,162.188629 382.309937,160.854492 
	C383.760406,159.411591 384.943298,158.153595 386.126160,156.895599 
z"/>
<path fill="#00F561" opacity="1.000000" stroke="none" 
	d="
M259.458496,106.927383 
	C259.072601,106.869560 258.902100,106.454872 258.802521,106.253532 
	C259.062378,104.310280 259.421814,102.568367 259.787903,100.451271 
	C259.865509,98.639153 259.936371,97.202217 260.015594,95.334557 
	C276.947815,101.588470 293.926361,108.139038 310.772430,115.014259 
	C319.207184,118.456650 327.400299,122.491112 335.793762,126.954788 
	C334.104187,128.433350 332.365906,129.745407 330.534576,129.891586 
	C326.031708,130.250931 321.486053,130.073822 316.957611,130.112473 
	C299.907623,123.063805 282.863007,116.001976 265.800140,108.984642 
	C263.867645,108.189873 261.832123,107.645630 259.458496,106.927383 
z"/>
<path fill="#00D852" opacity="1.000000" stroke="none" 
	d="
M479.057617,278.578613 
	C475.591827,279.216522 472.073151,279.475494 468.251129,279.922241 
	C465.168579,274.457275 462.576172,268.702972 459.570038,263.173584 
	C453.837402,252.629120 447.868744,242.212982 442.279449,231.225769 
	C445.736603,229.140839 448.912415,227.573700 452.088196,226.006561 
	C459.443329,239.499344 466.881744,252.947815 474.098999,266.513947 
	C476.074890,270.227936 477.387634,274.294769 479.057617,278.578613 
z"/>
<path fill="#00B642" opacity="1.000000" stroke="none" 
	d="
M347.449921,282.785553 
	C344.686249,282.691742 342.249329,282.057922 339.809296,282.045685 
	C323.233276,281.962494 306.656555,282.010406 289.622040,282.021698 
	C289.461334,278.970886 289.758667,275.914337 290.569946,272.439026 
	C309.666595,272.024139 328.249268,272.028046 346.831940,272.031952 
	C347.146362,275.532349 347.460815,279.032745 347.449921,282.785553 
z"/>
<path fill="#009D35" opacity="1.000000" stroke="none" 
	d="
M346.882874,271.662598 
	C328.249268,272.028046 309.666595,272.024139 290.626404,272.025909 
	C291.563934,268.771667 292.958984,265.511749 295.011627,262.286438 
	C297.287262,262.545563 298.904877,262.960846 300.523438,262.964569 
	C314.723419,262.997284 328.923553,262.956635 343.123657,262.937744 
	C344.393738,265.722900 345.663788,268.508087 346.882874,271.662598 
z"/>
<path fill="#00882A" opacity="1.000000" stroke="none" 
	d="
M342.962891,262.637970 
	C328.923553,262.956635 314.723419,262.997284 300.523438,262.964569 
	C298.904877,262.960846 297.287262,262.545563 295.311829,262.104340 
	C302.240936,249.605896 321.296478,245.954285 334.756836,254.576813 
	C337.833435,256.547638 340.140747,259.719269 342.962891,262.637970 
z"/>
<path fill="#00F15F" opacity="1.000000" stroke="none" 
	d="
M317.131531,130.424988 
	C321.486053,130.073822 326.031708,130.250931 330.534576,129.891586 
	C332.365906,129.745407 334.104187,128.433350 335.966766,127.265556 
	C336.213623,126.920616 336.378540,126.961906 336.958038,127.227737 
	C337.612427,127.635590 337.862366,127.803879 338.122406,127.957161 
	C341.872498,129.880493 345.622589,131.803833 349.374817,133.723083 
	C362.157990,122.160271 376.004120,125.273987 382.571350,134.620346 
	C373.178558,134.984909 364.197601,135.118195 355.222534,134.945435 
	C350.722717,134.858826 347.830688,136.392365 346.871460,141.298996 
	C346.101288,142.417755 345.475250,143.254242 344.849243,144.090714 
	C335.667969,139.639648 326.486725,135.188583 317.131531,130.424988 
z"/>
<path fill="#00AF3D" opacity="1.000000" stroke="none" 
	d="
M322.977264,363.040771 
	C325.044830,362.360352 327.107147,361.108856 329.180817,361.089783 
	C345.843353,360.936554 362.508026,361.015747 379.648865,361.032227 
	C379.658325,363.229370 379.190948,365.418182 377.944946,367.813904 
	C360.188690,368.031342 343.211151,368.041809 326.111877,367.733551 
	C324.985840,365.956848 323.981537,364.498840 322.977264,363.040771 
z"/>
<path fill="#00E95B" opacity="1.000000" stroke="none" 
	d="
M333.121094,304.674622 
	C324.045563,302.782227 315.108063,302.138458 306.055237,304.575653 
	C304.461060,305.004822 302.557098,304.283173 300.402100,304.059448 
	C298.118225,301.228577 296.228455,298.431183 294.652893,295.324432 
	C311.033386,295.026489 327.099670,295.037933 343.165924,295.049377 
	C339.861298,298.151337 336.556671,301.253265 333.121094,304.674622 
z"/>
<path fill="#00D451" opacity="1.000000" stroke="none" 
	d="
M417.916840,200.455750 
	C428.084290,200.036362 438.288971,200.056671 448.492767,199.969818 
	C450.440613,199.953247 452.384888,199.513855 454.725220,199.112427 
	C456.079987,201.346298 457.040375,203.737289 457.673218,206.728607 
	C454.412506,207.552429 451.436554,208.197281 448.555634,207.905273 
	C443.660431,207.409058 440.562469,208.784241 439.581970,214.054626 
	C437.777466,214.054611 436.389130,214.032669 434.816010,213.701660 
	C433.256805,208.521667 429.811096,207.442719 425.216827,207.942993 
	C422.467896,208.242340 419.658234,207.983429 416.875854,207.975449 
	C417.235168,205.603027 417.594452,203.230621 417.916840,200.455750 
z"/>
<path fill="#00D852" opacity="1.000000" stroke="none" 
	d="
M343.471588,294.888428 
	C327.099670,295.037933 311.033386,295.026489 294.502869,295.022186 
	C291.546539,289.541870 291.807556,289.028961 297.612427,289.014771 
	C313.380585,288.976227 329.148926,289.004883 345.375122,289.009460 
	C345.147766,290.917175 344.462524,292.822327 343.471588,294.888428 
z"/>
<path fill="#00BE43" opacity="1.000000" stroke="none" 
	d="
M326.233582,368.052246 
	C343.211151,368.041809 360.188690,368.031342 377.642670,368.028412 
	C377.746765,369.775787 377.374451,371.515625 376.917419,373.634338 
	C362.193878,374.008331 347.554840,374.037079 332.916382,373.961212 
	C330.801147,373.950256 328.688507,373.437134 326.250763,372.529053 
	C326.029114,370.618530 326.131348,369.335388 326.233582,368.052246 
z"/>
<path fill="#00A938" opacity="1.000000" stroke="none" 
	d="
M435.000824,214.010742 
	C436.389130,214.032669 437.777466,214.054611 439.782379,214.378891 
	C446.208923,215.112427 452.018890,215.543610 457.828827,215.974808 
	C456.786682,218.220734 455.744507,220.466644 453.929749,222.871490 
	C442.402008,223.037613 431.646851,223.044830 420.891693,223.052048 
	C419.615723,220.928360 418.339722,218.804657 417.572998,216.332062 
	C421.847961,215.986389 425.630798,216.203705 429.372192,215.903946 
	C431.286682,215.750534 433.126984,214.671463 435.000824,214.010742 
z"/>
<path fill="#00A938" opacity="1.000000" stroke="none" 
	d="
M386.101562,156.585983 
	C384.943298,158.153595 383.760406,159.411591 381.946289,160.649338 
	C370.838135,160.437286 360.361176,160.245468 349.884247,160.053650 
	C348.674194,158.251709 347.464142,156.449783 346.666870,154.318970 
	C360.331635,153.987595 373.583679,153.985123 386.835693,153.982651 
	C386.582794,154.747223 386.329865,155.511795 386.101562,156.585983 
z"/>
<path fill="#00CB4B" opacity="1.000000" stroke="none" 
	d="
M344.893555,144.451218 
	C345.475250,143.254242 346.101288,142.417755 347.338440,141.294479 
	C360.910706,140.998611 373.871796,140.989532 386.832886,140.980469 
	C387.200378,142.401123 387.567871,143.821777 387.433136,145.618530 
	C381.588654,146.328171 376.246399,146.661713 370.661346,146.761658 
	C367.640808,143.909546 364.948425,142.458099 362.252136,147.079773 
	C356.253815,147.037506 350.704346,147.007858 345.154877,146.978210 
	C345.082550,146.256042 345.010223,145.533890 344.893555,144.451218 
z"/>
<path fill="#00B642" opacity="1.000000" stroke="none" 
	d="
M345.088684,147.373352 
	C350.704346,147.007858 356.253815,147.037506 362.333618,147.428314 
	C364.155945,151.959946 366.597321,152.410080 370.402832,149.978638 
	C376.529755,149.987274 382.184601,149.989914 387.839447,149.992554 
	C387.544067,151.092621 387.248688,152.192688 386.894501,153.637711 
	C373.583679,153.985123 360.331635,153.987595 346.621674,153.986145 
	C345.783295,151.910980 345.402893,149.839737 345.088684,147.373352 
z"/>
<path fill="#00962D" opacity="1.000000" stroke="none" 
	d="
M349.941101,160.402588 
	C360.361176,160.245468 370.838135,160.437286 381.678711,160.834244 
	C381.037048,162.188629 380.031738,163.337860 378.952942,164.812973 
	C369.751221,170.436417 360.915771,170.050964 352.462524,163.667419 
	C351.471924,162.919357 350.811432,161.734100 349.941101,160.402588 
z"/>
<path fill="#00962D" opacity="1.000000" stroke="none" 
	d="
M421.045441,223.353912 
	C431.646851,223.044830 442.402008,223.037613 453.633026,223.041321 
	C453.614532,223.938461 453.120209,224.824661 452.357056,225.858704 
	C448.912415,227.573700 445.736603,229.140839 442.238037,230.865967 
	C433.992737,231.427643 426.372131,230.982559 421.045441,223.353912 
z"/>
<path fill="#00BE43" opacity="1.000000" stroke="none" 
	d="
M434.816010,213.701660 
	C433.126984,214.671463 431.286682,215.750534 429.372192,215.903946 
	C425.630798,216.203705 421.847961,215.986389 417.625458,215.979034 
	C416.860046,213.454453 416.551453,210.933975 416.559387,208.194489 
	C419.658234,207.983429 422.467896,208.242340 425.216827,207.942993 
	C429.811096,207.442719 433.256805,208.521667 434.816010,213.701660 
z"/>
<path fill="#00DE56" opacity="1.000000" stroke="none" 
	d="
M386.780273,140.647964 
	C373.871796,140.989532 360.910706,140.998611 347.482635,141.012192 
	C347.830688,136.392365 350.722717,134.858826 355.222534,134.945435 
	C364.197601,135.118195 373.178558,134.984909 382.632690,134.974182 
	C384.314697,136.752045 385.521149,138.533752 386.780273,140.647964 
z"/>
<path fill="#00BE43" opacity="1.000000" stroke="none" 
	d="
M457.907990,215.579926 
	C452.018890,215.543610 446.208923,215.112427 440.198547,214.356964 
	C440.562469,208.784241 443.660431,207.409058 448.555634,207.905273 
	C451.436554,208.197281 454.412506,207.552429 457.704773,207.114655 
	C458.038300,209.661926 458.012726,212.423492 457.907990,215.579926 
z"/>
<path fill="#00BE43" opacity="1.000000" stroke="none" 
	d="
M387.900513,149.594406 
	C382.184601,149.989914 376.529755,149.987274 370.533813,149.691696 
	C370.429901,148.597580 370.667023,147.796417 370.904144,146.995270 
	C376.246399,146.661713 381.588654,146.328171 387.386658,145.990219 
	C387.882172,147.055954 387.921875,148.126114 387.900513,149.594406 
z"/>
<path fill="#00F561" opacity="1.000000" stroke="none" 
	d="
M338.029236,127.713257 
	C337.862366,127.803879 337.612427,127.635590 337.201111,127.304985 
	C337.331757,127.261566 337.633911,127.365456 338.029236,127.713257 
z"/>
<path fill="#007D25" opacity="1.000000" stroke="none" 
	d="
M326.111877,367.733551 
	C326.131348,369.335388 326.029114,370.618530 325.906494,372.277069 
	C320.475800,378.231537 318.529510,378.506042 312.133911,374.292480 
	C311.558868,372.287109 311.234497,370.545807 310.869293,368.424225 
	C311.712708,366.487854 312.596954,364.931793 313.724182,363.145874 
	C316.671753,362.945892 319.376373,362.975769 322.529114,363.023193 
	C323.981537,364.498840 324.985840,365.956848 326.111877,367.733551 
z"/>
<path fill="#00F15F" opacity="1.000000" stroke="none" 
	d="
M370.661346,146.761658 
	C370.667023,147.796417 370.429901,148.597580 370.061768,149.685699 
	C366.597321,152.410080 364.155945,151.959946 362.782471,147.440918 
	C364.948425,142.458099 367.640808,143.909546 370.661346,146.761658 
z"/>
</svg>